<svg id="Camada_1" data-name="Camada 1" xmlns="http://www.w3.org/2000/svg" viewBox="0 0 212.85 37.26"><defs><style>.cls-1{fill:#fff;}</style></defs><title>deciframe</title><path class="cls-1" d="M189.55,21.13V32.61a2.87,2.87,0,0,1-2.87,2.87H184.9A2.87,2.87,0,0,1,182,32.61a2.87,2.87,0,1,0-5.74,0,2.87,2.87,0,1,1-5.74,0,2.87,2.87,0,1,0-5.74,0,2.87,2.87,0,0,1-2.87,2.87h-1.78a2.87,2.87,0,0,1-2.87-2.87V21.13a2.88,2.88,0,0,1,.38-1.44l3.26-5.64L161,13.9l3.28-5.68a2.87,2.87,0,0,1,2.49-1.44h13.26a2.87,2.87,0,0,1,2.49,1.44l3.28,5.68,0.09,0.16,3.26,5.64A2.88,2.88,0,0,1,189.55,21.13Z"/><circle class="cls-1" cx="154.09" cy="21.13" r="2.87"/><path class="cls-1" d="M49.13,24A2.87,2.87,0,0,0,52,21.13V9.65a2.87,2.87,0,0,0-2.87-2.87H38.54a2.87,2.87,0,0,0-2.49,1.44l-0.53.91-2.66,4.61-0.21.37L29.43,19.7a2.87,2.87,0,0,0,0,2.87l3.22,5.57,0.23,0.39,0,0,2.63,4.56L36.05,34a2.87,2.87,0,0,0,2.49,1.44H49.13a2.87,2.87,0,0,0,0-5.74A2.87,2.87,0,1,1,49.13,24Zm-4-5.74A2.87,2.87,0,1,1,48,15.39,2.87,2.87,0,0,1,45.17,18.26Z"/><path class="cls-1" d="M210,24a2.87,2.87,0,0,0,2.87-2.87V9.65A2.87,2.87,0,0,0,210,6.78H199.39a2.87,2.87,0,0,0-2.49,1.44l-0.53.91-2.66,4.61-0.21.37-3.23,5.59a2.87,2.87,0,0,0,0,2.87l3.22,5.57,0.23,0.39,0,0,2.63,4.56L196.9,34a2.87,2.87,0,0,0,2.49,1.44H210a2.87,2.87,0,0,0,0-5.74A2.87,2.87,0,1,1,210,24Zm-4-5.74a2.87,2.87,0,1,1,2.87-2.87A2.87,2.87,0,0,1,206,18.26Z"/><path class="cls-1" d="M69.56,21.13A2.87,2.87,0,0,0,72.43,24h0a2.87,2.87,0,0,1,2.83,2.87v5.74a2.87,2.87,0,0,1-2.87,2.87H61.84A2.87,2.87,0,0,1,59.35,34l-0.53-.91L56.2,28.58l0,0-0.23-.39-3.21-5.57a2.87,2.87,0,0,1,0-2.87l0.83-1.43L56,14.11l0.21-.37,2.66-4.61,0.53-.91a2.87,2.87,0,0,1,2.49-1.44H72.43a2.87,2.87,0,0,1,2.87,2.87v5.74a2.87,2.87,0,0,1-2.87,2.87A2.87,2.87,0,0,0,69.56,21.13Z"/><path class="cls-1" d="M130.79,18.26a2.87,2.87,0,0,0-2.87,2.87V32.61a2.87,2.87,0,0,0,2.87,2.87h10.59A2.87,2.87,0,0,0,143.86,34l0.53-.91,2.66-4.61,0.21-.37,3.23-5.59a2.87,2.87,0,0,0,0-2.87l-3.22-5.57-0.23-.39,0,0-2.63-4.56-0.52-.91a2.87,2.87,0,0,0-2.49-1.44H130.79a2.87,2.87,0,0,0,0,5.74A2.87,2.87,0,1,1,130.79,18.26Zm4,5.74a2.87,2.87,0,1,1-2.87,2.87A2.87,2.87,0,0,1,134.75,24Z"/><path class="cls-1" d="M108.24,21.13A2.87,2.87,0,0,1,105.52,24h-0.19a2.87,2.87,0,0,0-2.83,2.87v5.74a2.87,2.87,0,0,1-2.87,2.87H92.11a2.87,2.87,0,0,1-2.87-2.87V21.13h0a2.87,2.87,0,0,1,.38-1.44L96.25,8.22a2.87,2.87,0,0,1,2.49-1.44h6.92l0.14,0,0.14,0,0.17,0,0.11,0h0l0.11,0,0.11,0,0.11,0h0l0.09,0,0.16,0.08,0.1,0.06,0.14,0.1,0.08,0.06,0.1,0.09,0.1,0.09,0.09,0.09h0l0.09,0.09,0.09,0.1L107.72,8l0.05,0.08,0.07,0.11a2.75,2.75,0,0,1,.19.39l0,0.1,0,0.13,0,0.13,0,0.14a2.45,2.45,0,0,1,0,.27s0,0.07,0,.11,0,0.12,0,.18a2.87,2.87,0,0,1-2.87,2.87,2.87,2.87,0,0,0,0,5.74A2.87,2.87,0,0,1,108.24,21.13Z"/><path class="cls-1" d="M127.57,9.47s0-.07,0-0.11a2.45,2.45,0,0,0,0-.27l0-.14,0-.13,0-.13,0-.1a2.75,2.75,0,0,0-.19-0.39l-0.07-.11L127.05,8l-0.1-.14-0.09-.1-0.09-.09h0l-0.09-.09-0.1-.09-0.1-.09-0.08-.06-0.14-.1-0.1-.06L126,7.08,125.9,7h0l-0.11,0-0.11,0-0.11,0h0l-0.11,0-0.17,0-0.14,0L125,6.8H111.45a2.87,2.87,0,0,0-2.87,2.87v23a2.87,2.87,0,0,0,2.87,2.87H119a2.87,2.87,0,0,0,2.87-2.87V15.39a2.87,2.87,0,0,1,2.87-2.87,2.87,2.87,0,0,0,2.87-2.87C127.58,9.59,127.58,9.53,127.57,9.47Z"/><rect class="cls-1" x="75.64" y="6.78" width="13.26" height="28.7" rx="2.87" ry="2.87"/><circle class="cls-1" cx="82.27" cy="2.87" r="2.87"/><path class="cls-1" d="M28.7,14.5V27.76a2.87,2.87,0,0,1-1.44,2.49l-5.68,3.28-0.16.09-5.64,3.26a2.88,2.88,0,0,1-1.44.38H2.87A2.87,2.87,0,0,1,0,34.39V26.88A2.87,2.87,0,0,1,2.83,24h0a2.87,2.87,0,1,0,0-5.74A2.87,2.87,0,0,1,0,15.39V7.87A2.87,2.87,0,0,1,2.87,5H14.35a2.89,2.89,0,0,1,1.44.38l5.64,3.26,0.16,0.09L27.27,12A2.87,2.87,0,0,1,28.7,14.5Z"/></svg>
